# xmcd
#
# Track frame offsets:
#  150
#  17057
#  50642
#  93277
#  110107
#  125460
#  156607
#  172705
#  206525
#  227642
#
# Disc length: 3344 seconds
#
# Revision: 0
# Processed by: cddbd v1.5.1PL2 Copyright (c) Steve Scherf et al.
# Submitted via: Collectorz.com_Music_Collector 6.11
#
DISCID=810d0e0a
DTITLE=Eric Clapton - Welcome Back 1995
DYEAR=1995
DGENRE=Blues
TTITLE0=Sinners Prayer
TTITLE1=Every Day I Have The Blues
TTITLE2=Boogie Woogie Woman
TTITLE3=Someday After A While
TTITLE4=Tore Down
TTITLE5=Have You Ever Loved A Woman
TTITLE6=Crosscut Saw
TTITLE7=Five Long Years
TTITLE8=Got My Mojo Working
TTITLE9=Ain't Nobody's Business
EXTD=
EXTT0=
EXTT1=
EXTT2=
EXTT3=
EXTT4=
EXTT5=
EXTT6=
EXTT7=
EXTT8=
EXTT9=
PLAYORDER=
